HIERARCHY
ROOT Hips
{
	OFFSET 0.000000 0.000000 0.000000
	CHANNELS 6 Xposition Yposition Zposition Xrotation Yrotation Zrotation
	JOINT LeftUpLeg_virtual
	{
		OFFSET 0.000000 0.000000 0.000000
		CHANNELS 3 Xrotation Yrotation Zrotation
		JOINT LeftUpLeg
		{
			OFFSET 15.427100 -6.655098 0.678600
			CHANNELS 3 Xrotation Yrotation Zrotation
			JOINT LeftLeg
			{
				OFFSET 4.081073 -39.591068 13.024000
				CHANNELS 3 Xrotation Yrotation Zrotation
				JOINT LeftFoot
				{
					OFFSET -4.081074 -37.707932 -15.979700
					CHANNELS 3 Xrotation Yrotation Zrotation
					JOINT LeftToeBase
					{
						OFFSET 5.346399 -15.068900 20.645000
						CHANNELS 3 Xrotation Yrotation Zrotation
						JOINT LeftToe_End
						{
							OFFSET 2.754700 0.931300 11.300900
							CHANNELS 3 Xrotation Yrotation Zrotation
							End Site
							{
								OFFSET 0 0 0
							}
						}
					}
				}
			}
		}
	}
	JOINT RightUpLeg_virtual
	{
		OFFSET 0.000000 0.000000 0.000000
		CHANNELS 3 Xrotation Yrotation Zrotation
		JOINT RightUpLeg
		{
			OFFSET -15.569500 -6.655098 0.678600
			CHANNELS 3 Xrotation Yrotation Zrotation
			JOINT RightLeg
			{
				OFFSET -4.081825 -39.591045 13.023800
				CHANNELS 3 Xrotation Yrotation Zrotation
				JOINT RightFoot
				{
					OFFSET 4.081824 -37.707954 -15.979600
					CHANNELS 3 Xrotation Yrotation Zrotation
					JOINT RightToeBase
					{
						OFFSET -5.346400 -15.068900 20.645000
						CHANNELS 3 Xrotation Yrotation Zrotation
						JOINT RightToe_End
						{
							OFFSET -2.754700 0.931300 11.300900
							CHANNELS 3 Xrotation Yrotation Zrotation
							End Site
							{
								OFFSET 0 0 0
							}
						}
					}
				}
			}
		}
	}
	JOINT Spine_virtual
	{
		OFFSET 0.000000 0.000000 0.000000
		CHANNELS 3 Xrotation Yrotation Zrotation
		JOINT Spine
		{
			OFFSET -0.279200 12.230698 -2.892100
			CHANNELS 3 Xrotation Yrotation Zrotation
			JOINT Spine1
			{
				OFFSET -0.232667 10.192268 -1.242267
				CHANNELS 3 Xrotation Yrotation Zrotation
				JOINT Spine1_split
				{
					OFFSET -0.232667 10.192268 -1.242267
					CHANNELS 3 Xrotation Yrotation Zrotation
					JOINT Spine2
					{
						OFFSET -0.232667 10.192268 -1.242267
						CHANNELS 3 Xrotation Yrotation Zrotation
						JOINT Neck_virtual
						{
							OFFSET 0.000000 0.000000 0.000000
							CHANNELS 3 Xrotation Yrotation Zrotation
							JOINT Neck
							{
								OFFSET -0.418800 17.814194 8.416900
								CHANNELS 3 Xrotation Yrotation Zrotation
								JOINT Head
								{
									OFFSET 0.000000 7.031097 3.806800
									CHANNELS 3 Xrotation Yrotation Zrotation
									JOINT HeadTop_End
									{
										OFFSET 0.000000 24.646606 12.978600
										CHANNELS 3 Xrotation Yrotation Zrotation
										End Site
										{
											OFFSET 0 0 0
										}
									}
								}
							}
						}
						JOINT LeftShoulder_virtual
						{
							OFFSET 0.000000 0.000000 0.000000
							CHANNELS 3 Xrotation Yrotation Zrotation
							JOINT LeftShoulder
							{
								OFFSET 8.476499 7.247704 -3.868750
								CHANNELS 3 Xrotation Yrotation Zrotation
								JOINT LeftShoulder_split
								{
									OFFSET 8.476499 7.247704 -3.868750
									CHANNELS 3 Xrotation Yrotation Zrotation
									JOINT LeftArm
									{
										OFFSET 9.308998 -2.777710 0.208600
										CHANNELS 3 Xrotation Yrotation Zrotation
										JOINT LeftForeArm
										{
											OFFSET 29.972298 0.000000 0.000000
											CHANNELS 3 Xrotation Yrotation Zrotation
											JOINT LeftHand
											{
												OFFSET 26.026505 0.000000 0.000000
												CHANNELS 3 Xrotation Yrotation Zrotation
												End Site
												{
													OFFSET 0 0 0
												}
											}
										}
									}
								}
							}
						}
						JOINT RightShoulder_virtual
						{
							OFFSET 0.000000 0.000000 0.000000
							CHANNELS 3 Xrotation Yrotation Zrotation
							JOINT RightShoulder
							{
								OFFSET -7.570500 7.247704 -3.868750
								CHANNELS 3 Xrotation Yrotation Zrotation
								JOINT RightShoulder_split
								{
									OFFSET -7.570500 7.247704 -3.868750
									CHANNELS 3 Xrotation Yrotation Zrotation
									JOINT RightArm
									{
										OFFSET -9.308998 -2.777710 0.208500
										CHANNELS 3 Xrotation Yrotation Zrotation
										JOINT RightForeArm
										{
											OFFSET -29.972300 0.000000 0.000000
											CHANNELS 3 Xrotation Yrotation Zrotation
											JOINT RightHand
											{
												OFFSET -26.026505 0.000000 0.000000
												CHANNELS 3 Xrotation Yrotation Zrotation
												End Site
												{
													OFFSET 0 0 0
												}
											}
										}
									}
								}
							}
						}
					}
				}
			}
		}
	}
}
MOTION
Frames: 4
Frame Time: 0.03333333
-10.275433 79.803001 -1.131386 0.000000 0.000000 0.000000 25.157800 -65.247991 18.782049 -57.684185 -16.145720 19.875681 38.783016 -4.288905 6.346660 1.852476 0.739486 -14.792153 0.755643 2.925751 -1.783730 0.000000 0.000000 0.000000 21.895508 -68.867732 18.228148 -43.723859 1.006619 -20.979720 53.524467 -4.464448 3.008252 7.567751 -1.582205 17.833110 -1.690220 0.596654 3.996383 0.000000 0.000000 0.000000 28.187269 -67.853599 20.851111 8.140211 8.655931 -3.467961 -0.227253 11.418662 3.176228 0.278902 0.972267 0.277513 0.000000 0.000000 0.000000 11.319330 12.652656 0.480374 -0.314596 10.839626 -6.052219 -12.499779 10.011655 8.085406 0.000000 0.000000 0.000000 5.297700 13.857899 1.093233 5.652183 5.248991 -7.837098 10.072535 8.987055 -2.659766 -62.448870 -30.808258 -46.279190 6.759869 -77.842047 3.854365 0.000000 0.000000 0.000000 6.387199 13.033573 1.737006 -13.621366 5.204848 -1.378319 -4.929440 -2.516859 -9.799531 -79.034947 38.010095 106.578101 -7.549679 47.408698 5.995546 0.000000 0.000000 0.000000 
-9.767074 81.036713 -7.551769 0.000000 0.000000 0.000000 23.335341 -63.031035 15.783075 -59.229174 -14.781045 17.397858 39.594993 -2.875319 5.570534 2.784004 0.373025 -14.940311 -0.160835 2.444244 -1.028476 0.000000 0.000000 0.000000 21.271738 -68.553591 16.582998 -42.076294 -0.888858 -18.460862 51.229462 -2.988818 2.128240 7.478846 0.793758 21.661270 -2.608367 1.010345 2.396259 0.000000 0.000000 0.000000 30.293221 -68.832522 22.256274 7.268704 8.803468 -2.503504 -0.674553 11.521574 3.318453 0.079215 0.313378 0.291630 0.000000 0.000000 0.000000 11.421034 12.936236 0.453363 0.903805 10.987726 -6.806850 -12.062615 10.870372 7.672603 0.000000 0.000000 0.000000 5.410543 13.934242 1.128363 5.494301 5.211721 -7.891185 9.884988 9.325546 -2.212729 -62.161798 -30.736722 -45.476451 5.884882 -76.749333 2.618394 0.000000 0.000000 0.000000 6.412547 13.263641 1.904305 -13.308408 5.678289 -1.445902 -5.435915 -2.438732 -10.540749 -78.334401 37.104296 105.375223 -7.248579 46.461894 5.732767 0.000000 0.000000 0.000000 
-9.000731 82.134369 -15.426865 0.000000 0.000000 0.000000 22.308663 -63.581753 13.876534 -59.805341 -10.201703 14.089764 40.156318 -1.165166 4.329301 4.598161 -0.994300 -14.920015 -1.062755 1.600457 0.583455 0.000000 0.000000 0.000000 23.116318 -69.529065 16.612005 -38.606357 -4.353691 -13.043447 47.204698 -2.821347 0.999160 4.636766 1.549939 22.875656 -3.060173 1.167301 0.655268 0.000000 0.000000 0.000000 33.223331 -70.927594 24.376978 6.124407 9.199338 -1.030610 -0.917490 11.836972 3.613446 0.291515 0.087359 0.568909 0.000000 0.000000 0.000000 11.628540 13.422228 0.728395 1.948161 10.959993 -8.083460 -10.736515 11.620660 6.058570 0.000000 0.000000 0.000000 5.653082 14.195233 1.448044 5.353988 5.019397 -8.398651 10.192168 9.311006 -1.834744 -61.575556 -31.413884 -45.282307 6.959123 -76.975474 3.183320 0.000000 0.000000 0.000000 6.563252 13.637975 2.365772 -12.915982 6.503634 -1.203483 -6.069607 -2.413642 -10.658851 -77.551190 37.680955 103.561828 -6.820454 45.896986 5.321089 0.000000 0.000000 0.000000 
-8.343414 82.483704 -24.137741 0.000000 0.000000 0.000000 23.622344 -67.592795 14.603349 -59.326285 -4.286806 10.715779 41.045916 0.439492 2.941423 6.578536 -2.728285 -14.467628 -1.301650 0.668775 2.401573 0.000000 0.000000 0.000000 27.432143 -72.418174 19.168096 -34.766093 -8.317470 -6.976584 44.251283 -4.089646 0.134798 -0.094823 0.095844 20.772217 -3.077037 0.962205 -0.777741 0.000000 0.000000 0.000000 38.185866 -73.899908 28.449483 5.028539 9.711435 0.538001 -0.986462 12.329458 4.020387 0.496936 0.028207 0.883555 0.000000 0.000000 0.000000 11.746608 14.040499 1.252155 2.763037 10.719347 -9.467154 -9.058678 12.192210 3.653166 0.000000 0.000000 0.000000 5.909714 14.614134 1.956661 5.294911 4.782711 -9.207111 11.016994 8.836556 -1.511896 -60.526015 -32.666418 -45.480802 9.410640 -78.002454 5.071275 0.000000 0.000000 0.000000 6.818174 14.128138 2.999320 -12.511139 7.565969 -0.772643 -6.782853 -2.218297 -10.529430 -76.532522 39.210282 101.550891 -6.358247 45.762804 4.826727 0.000000 0.000000 0.000000 
